<svg xmlns="http://www.w3.org/2000/svg" width="38" height="42.018" viewBox="0 0 38 42.018">
  <g id="profileanact" transform="translate(-43.5 -7.982)">
    <text id="PROFILE" transform="translate(62.5 47)" fill="#999" font-size="10" font-family="SegoeUI, Segoe UI"><tspan x="-18.167" y="0">PROFILE</tspan></text>
    <path id="Combined_Shape" data-name="Combined Shape" d="M0,24V19.436A7.43,7.43,0,0,1,3.38,13.2V.965A.968.968,0,0,1,5.131.41L9.369,6.248a1.174,1.174,0,0,0,.951.482H13.7a1.176,1.176,0,0,0,.939-.464L18.775.451A1,1,0,0,1,20.62.923V13.2A7.431,7.431,0,0,1,24,19.436V24Z" transform="translate(51 9)" fill="none" stroke="#999" stroke-miterlimit="10" stroke-width="2"/>
  </g>
</svg>
