<svg xmlns="http://www.w3.org/2000/svg" xmlns:xlink="http://www.w3.org/1999/xlink" width="24" height="40" viewBox="0 0 24 40">
  <defs>
    <linearGradient id="linear-gradient" x1="0.2" x2="0.754" y2="0.87" gradientUnits="objectBoundingBox">
      <stop offset="0" stop-color="#f99f00"/>
      <stop offset="1" stop-color="#db3069"/>
    </linearGradient>
  </defs>
  <g id="tvactive" transform="translate(-51 -10)">
    <text id="TV" transform="translate(62.5 47)" fill="#e24951" font-size="10" font-family="SegoeUI, Segoe UI"><tspan x="-7.2" y="0">TV </tspan></text>
    <path id="Combined_Shape" data-name="Combined Shape" d="M4,22V20H20v2ZM2,18a2,2,0,0,1-2-2V2A2,2,0,0,1,2,0H22a2,2,0,0,1,2,2V16a2,2,0,0,1-2,2ZM3,7H5V3H3ZM6,5H8V3H6Z" transform="translate(51 10)" fill="url(#linear-gradient)"/>
  </g>
</svg>
